<svg xmlns="http://www.w3.org/2000/svg" data-name="Layer 1" x="0px" y="0px" viewBox="2.17 2.01 19.64 19.99"><path d="m20.48,7.41s.03-.06.05-.08c.11-.18.21-.36.38-.59.65-.92.74-2.11.22-3.11-.52-1-1.54-1.62-2.67-1.62H5.18c-1.13,0-2.15.62-2.67,1.62-.52,1-.43,2.19.22,3.11l6.08,8.58v3.68c0,1.65,1.35,3,3,3s3-1.35,3-3v-2.71c.48.14.98.21,1.5.21,3.03,0,5.5-2.47,5.5-5.5,0-1.37-.51-2.63-1.34-3.59Zm-7.66,11.59c0,.55-.45,1-1,1s-1-.45-1-1v-4c0-.21-.06-.41-.18-.58L4.37,5.58c-.22-.31-.25-.7-.07-1.04.17-.33.51-.54.89-.54h13.28c.38,0,.72.21.89.54.17.33.14.73-.07,1.04-.16.22-.27.4-.37.57-.77-.41-1.65-.65-2.58-.65-3.03,0-5.5,2.47-5.5,5.5,0,1.7.78,3.23,2,4.24v3.76Zm3.5-4.5c-1.93,0-3.5-1.57-3.5-3.5s1.57-3.5,3.5-3.5,3.5,1.57,3.5,3.5-1.57,3.5-3.5,3.5Z"/><path d="m14.32,10c-.55,0-1,.45-1,1s.45,1,1,1h4c.55,0,1-.45,1-1s-.45-1-1-1h-4Z"/></svg>